<?xml version="1.0" encoding="utf-8" standalone="no"?>
<!DOCTYPE svg PUBLIC "-//W3C//DTD SVG 1.1//EN"
  "http://www.w3.org/Graphics/SVG/1.1/DTD/svg11.dtd">
<svg xmlns:xlink="http://www.w3.org/1999/xlink" width="400.49625pt" height="312.803875pt" viewBox="0 0 400.49625 312.803875" xmlns="http://www.w3.org/2000/svg" version="1.1">
 <metadata>
  <rdf:RDF xmlns:dc="http://purl.org/dc/elements/1.1/" xmlns:cc="http://creativecommons.org/ns#" xmlns:rdf="http://www.w3.org/1999/02/22-rdf-syntax-ns#">
   <cc:Work>
    <dc:type rdf:resource="http://purl.org/dc/dcmitype/StillImage"/>
    <dc:date>2024-02-09T11:50:03.852739</dc:date>
    <dc:format>image/svg+xml</dc:format>
    <dc:creator>
     <cc:Agent>
      <dc:title>Matplotlib v3.6.3, https://matplotlib.org/</dc:title>
     </cc:Agent>
    </dc:creator>
   </cc:Work>
  </rdf:RDF>
 </metadata>
 <defs>
  <style type="text/css">*{stroke-linejoin: round; stroke-linecap: butt}</style>
 </defs>
 <g id="figure_1">
  <g id="patch_1">
   <path d="M 0 312.803875 
L 400.49625 312.803875 
L 400.49625 0 
L 0 0 
z
" style="fill: #ffffff"/>
  </g>
  <g id="axes_1">
   <g id="patch_2">
    <path d="M 36.17625 273.312 
L 393.29625 273.312 
L 393.29625 7.2 
L 36.17625 7.2 
z
" style="fill: #ffffff"/>
   </g>
   <g id="PathCollection_1">
    <defs>
     <path id="mcd04d8993f" d="M 0 3 
C 0.795609 3 1.55874 2.683901 2.12132 2.12132 
C 2.683901 1.55874 3 0.795609 3 0 
C 3 -0.795609 2.683901 -1.55874 2.12132 -2.12132 
C 1.55874 -2.683901 0.795609 -3 0 -3 
C -0.795609 -3 -1.55874 -2.683901 -2.12132 -2.12132 
C -2.683901 -1.55874 -3 -0.795609 -3 0 
C -3 0.795609 -2.683901 1.55874 -2.12132 2.12132 
C -1.55874 2.683901 -0.795609 3 0 3 
z
" style="stroke: #1e90ff"/>
    </defs>
    <g clip-path="url(#p346c3f3699)">
     <use xlink:href="#mcd04d8993f" x="363.337229" y="120.549787" style="fill: #1e90ff; stroke: #1e90ff"/>
     <use xlink:href="#mcd04d8993f" x="166.795261" y="19.296" style="fill: #1e90ff; stroke: #1e90ff"/>
     <use xlink:href="#mcd04d8993f" x="204.18953" y="76.50108" style="fill: #1e90ff; stroke: #1e90ff"/>
     <use xlink:href="#mcd04d8993f" x="141.360386" y="143.512929" style="fill: #1e90ff; stroke: #1e90ff"/>
     <use xlink:href="#mcd04d8993f" x="292.918926" y="129.117439" style="fill: #1e90ff; stroke: #1e90ff"/>
     <use xlink:href="#mcd04d8993f" x="123.573089" y="64.282749" style="fill: #1e90ff; stroke: #1e90ff"/>
     <use xlink:href="#mcd04d8993f" x="198.246116" y="196.369774" style="fill: #1e90ff; stroke: #1e90ff"/>
     <use xlink:href="#mcd04d8993f" x="183.500428" y="103.448586" style="fill: #1e90ff; stroke: #1e90ff"/>
     <use xlink:href="#mcd04d8993f" x="244.033367" y="132.725082" style="fill: #1e90ff; stroke: #1e90ff"/>
     <use xlink:href="#mcd04d8993f" x="137.629584" y="182.402282" style="fill: #1e90ff; stroke: #1e90ff"/>
     <use xlink:href="#mcd04d8993f" x="211.577903" y="189.772039" style="fill: #1e90ff; stroke: #1e90ff"/>
     <use xlink:href="#mcd04d8993f" x="71.998041" y="212.275922" style="fill: #1e90ff; stroke: #1e90ff"/>
     <use xlink:href="#mcd04d8993f" x="234.389764" y="182.676244" style="fill: #1e90ff; stroke: #1e90ff"/>
     <use xlink:href="#mcd04d8993f" x="257.475976" y="64.544477" style="fill: #1e90ff; stroke: #1e90ff"/>
     <use xlink:href="#mcd04d8993f" x="303.816573" y="176.613452" style="fill: #1e90ff; stroke: #1e90ff"/>
     <use xlink:href="#mcd04d8993f" x="271.521607" y="143.229608" style="fill: #1e90ff; stroke: #1e90ff"/>
     <use xlink:href="#mcd04d8993f" x="225.812464" y="256.510809" style="fill: #1e90ff; stroke: #1e90ff"/>
     <use xlink:href="#mcd04d8993f" x="352.886467" y="87.194186" style="fill: #1e90ff; stroke: #1e90ff"/>
     <use xlink:href="#mcd04d8993f" x="333.56478" y="193.587829" style="fill: #1e90ff; stroke: #1e90ff"/>
     <use xlink:href="#mcd04d8993f" x="216.987869" y="78.712719" style="fill: #1e90ff; stroke: #1e90ff"/>
     <use xlink:href="#mcd04d8993f" x="217.28759" y="148.599524" style="fill: #1e90ff; stroke: #1e90ff"/>
     <use xlink:href="#mcd04d8993f" x="193.776281" y="88.331812" style="fill: #1e90ff; stroke: #1e90ff"/>
     <use xlink:href="#mcd04d8993f" x="94.181723" y="62.897674" style="fill: #1e90ff; stroke: #1e90ff"/>
     <use xlink:href="#mcd04d8993f" x="67.685851" y="230.234891" style="fill: #1e90ff; stroke: #1e90ff"/>
     <use xlink:href="#mcd04d8993f" x="351.170547" y="59.352903" style="fill: #1e90ff; stroke: #1e90ff"/>
     <use xlink:href="#mcd04d8993f" x="94.258841" y="201.764319" style="fill: #1e90ff; stroke: #1e90ff"/>
     <use xlink:href="#mcd04d8993f" x="347.0945" y="61.235588" style="fill: #1e90ff; stroke: #1e90ff"/>
     <use xlink:href="#mcd04d8993f" x="303.108732" y="219.109789" style="fill: #1e90ff; stroke: #1e90ff"/>
     <use xlink:href="#mcd04d8993f" x="211.175816" y="112.116274" style="fill: #1e90ff; stroke: #1e90ff"/>
     <use xlink:href="#mcd04d8993f" x="264.577868" y="41.358214" style="fill: #1e90ff; stroke: #1e90ff"/>
     <use xlink:href="#mcd04d8993f" x="329.537375" y="261.216" style="fill: #1e90ff; stroke: #1e90ff"/>
     <use xlink:href="#mcd04d8993f" x="377.063523" y="227.616247" style="fill: #1e90ff; stroke: #1e90ff"/>
     <use xlink:href="#mcd04d8993f" x="171.922824" y="114.312593" style="fill: #1e90ff; stroke: #1e90ff"/>
     <use xlink:href="#mcd04d8993f" x="228.488772" y="142.32893" style="fill: #1e90ff; stroke: #1e90ff"/>
     <use xlink:href="#mcd04d8993f" x="187.875587" y="199.049205" style="fill: #1e90ff; stroke: #1e90ff"/>
     <use xlink:href="#mcd04d8993f" x="139.617839" y="188.576698" style="fill: #1e90ff; stroke: #1e90ff"/>
     <use xlink:href="#mcd04d8993f" x="279.915104" y="113.470747" style="fill: #1e90ff; stroke: #1e90ff"/>
     <use xlink:href="#mcd04d8993f" x="340.136037" y="192.734064" style="fill: #1e90ff; stroke: #1e90ff"/>
     <use xlink:href="#mcd04d8993f" x="143.937071" y="191.91553" style="fill: #1e90ff; stroke: #1e90ff"/>
     <use xlink:href="#mcd04d8993f" x="264.597344" y="104.823712" style="fill: #1e90ff; stroke: #1e90ff"/>
     <use xlink:href="#mcd04d8993f" x="361.858617" y="70.877692" style="fill: #1e90ff; stroke: #1e90ff"/>
     <use xlink:href="#mcd04d8993f" x="74.041126" y="170.872889" style="fill: #1e90ff; stroke: #1e90ff"/>
     <use xlink:href="#mcd04d8993f" x="128.089379" y="31.774879" style="fill: #1e90ff; stroke: #1e90ff"/>
     <use xlink:href="#mcd04d8993f" x="157.955832" y="59.976634" style="fill: #1e90ff; stroke: #1e90ff"/>
     <use xlink:href="#mcd04d8993f" x="231.331783" y="204.61334" style="fill: #1e90ff; stroke: #1e90ff"/>
     <use xlink:href="#mcd04d8993f" x="171.851649" y="232.587557" style="fill: #1e90ff; stroke: #1e90ff"/>
     <use xlink:href="#mcd04d8993f" x="239.139249" y="234.250254" style="fill: #1e90ff; stroke: #1e90ff"/>
     <use xlink:href="#mcd04d8993f" x="52.408977" y="83.035534" style="fill: #1e90ff; stroke: #1e90ff"/>
     <use xlink:href="#mcd04d8993f" x="217.352286" y="120.370002" style="fill: #1e90ff; stroke: #1e90ff"/>
     <use xlink:href="#mcd04d8993f" x="118.030457" y="260.04111" style="fill: #1e90ff; stroke: #1e90ff"/>
    </g>
   </g>
   <g id="PathCollection_2">
    <defs>
     <path id="m5ed06d0052" d="M 0 3 
C 0.795609 3 1.55874 2.683901 2.12132 2.12132 
C 2.683901 1.55874 3 0.795609 3 0 
C 3 -0.795609 2.683901 -1.55874 2.12132 -2.12132 
C 1.55874 -2.683901 0.795609 -3 0 -3 
C -0.795609 -3 -1.55874 -2.683901 -2.12132 -2.12132 
C -2.683901 -1.55874 -3 -0.795609 -3 0 
C -3 0.795609 -2.683901 1.55874 -2.12132 2.12132 
C -1.55874 2.683901 -0.795609 3 0 3 
z
" style="stroke: #ff0000"/>
    </defs>
    <g clip-path="url(#p346c3f3699)">
     <use xlink:href="#m5ed06d0052" x="289.829266" y="168.717007" style="fill: #ff0000; stroke: #ff0000"/>
     <use xlink:href="#m5ed06d0052" x="132.420751" y="47.433944" style="fill: #ff0000; stroke: #ff0000"/>
     <use xlink:href="#m5ed06d0052" x="161.128652" y="100.049281" style="fill: #ff0000; stroke: #ff0000"/>
     <use xlink:href="#m5ed06d0052" x="139.463856" y="120.247736" style="fill: #ff0000; stroke: #ff0000"/>
     <use xlink:href="#m5ed06d0052" x="250.591079" y="169.028022" style="fill: #ff0000; stroke: #ff0000"/>
     <use xlink:href="#m5ed06d0052" x="107.638842" y="62.739684" style="fill: #ff0000; stroke: #ff0000"/>
     <use xlink:href="#m5ed06d0052" x="229.431279" y="194.58792" style="fill: #ff0000; stroke: #ff0000"/>
     <use xlink:href="#m5ed06d0052" x="153.184029" y="108.560332" style="fill: #ff0000; stroke: #ff0000"/>
     <use xlink:href="#m5ed06d0052" x="217.792757" y="160.432869" style="fill: #ff0000; stroke: #ff0000"/>
     <use xlink:href="#m5ed06d0052" x="165.459258" y="151.432743" style="fill: #ff0000; stroke: #ff0000"/>
     <use xlink:href="#m5ed06d0052" x="235.919082" y="194.690093" style="fill: #ff0000; stroke: #ff0000"/>
     <use xlink:href="#m5ed06d0052" x="137.48763" y="153.636414" style="fill: #ff0000; stroke: #ff0000"/>
     <use xlink:href="#m5ed06d0052" x="248.64008" y="196.368787" style="fill: #ff0000; stroke: #ff0000"/>
     <use xlink:href="#m5ed06d0052" x="195.171564" y="115.381153" style="fill: #ff0000; stroke: #ff0000"/>
     <use xlink:href="#m5ed06d0052" x="291.363345" y="201.722837" style="fill: #ff0000; stroke: #ff0000"/>
     <use xlink:href="#m5ed06d0052" x="246.454635" y="175.589052" style="fill: #ff0000; stroke: #ff0000"/>
     <use xlink:href="#m5ed06d0052" x="266.494575" y="243.053538" style="fill: #ff0000; stroke: #ff0000"/>
     <use xlink:href="#m5ed06d0052" x="264.778583" y="147.168062" style="fill: #ff0000; stroke: #ff0000"/>
     <use xlink:href="#m5ed06d0052" x="318.467696" y="213.521652" style="fill: #ff0000; stroke: #ff0000"/>
     <use xlink:href="#m5ed06d0052" x="170.488341" y="107.779032" style="fill: #ff0000; stroke: #ff0000"/>
     <use xlink:href="#m5ed06d0052" x="208.462725" y="162.965102" style="fill: #ff0000; stroke: #ff0000"/>
     <use xlink:href="#m5ed06d0052" x="156.393242" y="102.973558" style="fill: #ff0000; stroke: #ff0000"/>
     <use xlink:href="#m5ed06d0052" x="89.490391" y="57.448856" style="fill: #ff0000; stroke: #ff0000"/>
     <use xlink:href="#m5ed06d0052" x="145.744872" y="165.654835" style="fill: #ff0000; stroke: #ff0000"/>
     <use xlink:href="#m5ed06d0052" x="254.212652" y="129.595585" style="fill: #ff0000; stroke: #ff0000"/>
     <use xlink:href="#m5ed06d0052" x="146.066283" y="151.208023" style="fill: #ff0000; stroke: #ff0000"/>
     <use xlink:href="#m5ed06d0052" x="252.169728" y="130.460789" style="fill: #ff0000; stroke: #ff0000"/>
     <use xlink:href="#m5ed06d0052" x="308.275082" y="228.240927" style="fill: #ff0000; stroke: #ff0000"/>
     <use xlink:href="#m5ed06d0052" x="177.853933" y="129.178003" style="fill: #ff0000; stroke: #ff0000"/>
     <use xlink:href="#m5ed06d0052" x="195.842436" y="102.753976" style="fill: #ff0000; stroke: #ff0000"/>
     <use xlink:href="#m5ed06d0052" x="330.643837" y="254.745341" style="fill: #ff0000; stroke: #ff0000"/>
     <use xlink:href="#m5ed06d0052" x="355.243887" y="234.932499" style="fill: #ff0000; stroke: #ff0000"/>
     <use xlink:href="#m5ed06d0052" x="148.448487" y="110.953628" style="fill: #ff0000; stroke: #ff0000"/>
     <use xlink:href="#m5ed06d0052" x="212.777793" y="162.457566" style="fill: #ff0000; stroke: #ff0000"/>
     <use xlink:href="#m5ed06d0052" x="222.646257" y="192.137062" style="fill: #ff0000; stroke: #ff0000"/>
     <use xlink:href="#m5ed06d0052" x="172.356616" y="157.883074" style="fill: #ff0000; stroke: #ff0000"/>
     <use xlink:href="#m5ed06d0052" x="230.990994" y="155.733229" style="fill: #ff0000; stroke: #ff0000"/>
     <use xlink:href="#m5ed06d0052" x="322.128411" y="213.149144" style="fill: #ff0000; stroke: #ff0000"/>
     <use xlink:href="#m5ed06d0052" x="178.911425" y="163.041281" style="fill: #ff0000; stroke: #ff0000"/>
     <use xlink:href="#m5ed06d0052" x="215.011808" y="145.662188" style="fill: #ff0000; stroke: #ff0000"/>
     <use xlink:href="#m5ed06d0052" x="264.178328" y="137.463685" style="fill: #ff0000; stroke: #ff0000"/>
     <use xlink:href="#m5ed06d0052" x="109.300938" y="124.250887" style="fill: #ff0000; stroke: #ff0000"/>
     <use xlink:href="#m5ed06d0052" x="108.97918" y="43.73159" style="fill: #ff0000; stroke: #ff0000"/>
     <use xlink:href="#m5ed06d0052" x="128.777414" y="69.368996" style="fill: #ff0000; stroke: #ff0000"/>
     <use xlink:href="#m5ed06d0052" x="257.861683" y="210.942616" style="fill: #ff0000; stroke: #ff0000"/>
     <use xlink:href="#m5ed06d0052" x="225.514965" y="209.659437" style="fill: #ff0000; stroke: #ff0000"/>
     <use xlink:href="#m5ed06d0052" x="271.633245" y="231.656837" style="fill: #ff0000; stroke: #ff0000"/>
     <use xlink:href="#m5ed06d0052" x="65.525476" y="66.719969" style="fill: #ff0000; stroke: #ff0000"/>
     <use xlink:href="#m5ed06d0052" x="187.42642" y="138.904931" style="fill: #ff0000; stroke: #ff0000"/>
     <use xlink:href="#m5ed06d0052" x="194.40544" y="203.686236" style="fill: #ff0000; stroke: #ff0000"/>
    </g>
   </g>
   <g id="matplotlib.axis_1">
    <g id="xtick_1">
     <g id="line2d_1">
      <defs>
       <path id="m930cf359f6" d="M 0 0 
L 0 3.5 
" style="stroke: #000000; stroke-width: 0.8"/>
      </defs>
      <g>
       <use xlink:href="#m930cf359f6" x="50.904355" y="273.312" style="stroke: #000000; stroke-width: 0.8"/>
      </g>
     </g>
     <g id="text_1">
      <!-- 0 -->
      <g transform="translate(47.723105 287.910437) scale(0.1 -0.1)">
       <defs>
        <path id="DejaVuSans-30" d="M 2034 4250 
Q 1547 4250 1301 3770 
Q 1056 3291 1056 2328 
Q 1056 1369 1301 889 
Q 1547 409 2034 409 
Q 2525 409 2770 889 
Q 3016 1369 3016 2328 
Q 3016 3291 2770 3770 
Q 2525 4250 2034 4250 
z
M 2034 4750 
Q 2819 4750 3233 4129 
Q 3647 3509 3647 2328 
Q 3647 1150 3233 529 
Q 2819 -91 2034 -91 
Q 1250 -91 836 529 
Q 422 1150 422 2328 
Q 422 3509 836 4129 
Q 1250 4750 2034 4750 
z
" transform="scale(0.015625)"/>
       </defs>
       <use xlink:href="#DejaVuSans-30"/>
      </g>
     </g>
    </g>
    <g id="xtick_2">
     <g id="line2d_2">
      <g>
       <use xlink:href="#m930cf359f6" x="116.464742" y="273.312" style="stroke: #000000; stroke-width: 0.8"/>
      </g>
     </g>
     <g id="text_2">
      <!-- 1 -->
      <g transform="translate(113.283492 287.910437) scale(0.1 -0.1)">
       <defs>
        <path id="DejaVuSans-31" d="M 794 531 
L 1825 531 
L 1825 4091 
L 703 3866 
L 703 4441 
L 1819 4666 
L 2450 4666 
L 2450 531 
L 3481 531 
L 3481 0 
L 794 0 
L 794 531 
z
" transform="scale(0.015625)"/>
       </defs>
       <use xlink:href="#DejaVuSans-31"/>
      </g>
     </g>
    </g>
    <g id="xtick_3">
     <g id="line2d_3">
      <g>
       <use xlink:href="#m930cf359f6" x="182.025129" y="273.312" style="stroke: #000000; stroke-width: 0.8"/>
      </g>
     </g>
     <g id="text_3">
      <!-- 2 -->
      <g transform="translate(178.843879 287.910437) scale(0.1 -0.1)">
       <defs>
        <path id="DejaVuSans-32" d="M 1228 531 
L 3431 531 
L 3431 0 
L 469 0 
L 469 531 
Q 828 903 1448 1529 
Q 2069 2156 2228 2338 
Q 2531 2678 2651 2914 
Q 2772 3150 2772 3378 
Q 2772 3750 2511 3984 
Q 2250 4219 1831 4219 
Q 1534 4219 1204 4116 
Q 875 4013 500 3803 
L 500 4441 
Q 881 4594 1212 4672 
Q 1544 4750 1819 4750 
Q 2544 4750 2975 4387 
Q 3406 4025 3406 3419 
Q 3406 3131 3298 2873 
Q 3191 2616 2906 2266 
Q 2828 2175 2409 1742 
Q 1991 1309 1228 531 
z
" transform="scale(0.015625)"/>
       </defs>
       <use xlink:href="#DejaVuSans-32"/>
      </g>
     </g>
    </g>
    <g id="xtick_4">
     <g id="line2d_4">
      <g>
       <use xlink:href="#m930cf359f6" x="247.585516" y="273.312" style="stroke: #000000; stroke-width: 0.8"/>
      </g>
     </g>
     <g id="text_4">
      <!-- 3 -->
      <g transform="translate(244.404266 287.910437) scale(0.1 -0.1)">
       <defs>
        <path id="DejaVuSans-33" d="M 2597 2516 
Q 3050 2419 3304 2112 
Q 3559 1806 3559 1356 
Q 3559 666 3084 287 
Q 2609 -91 1734 -91 
Q 1441 -91 1130 -33 
Q 819 25 488 141 
L 488 750 
Q 750 597 1062 519 
Q 1375 441 1716 441 
Q 2309 441 2620 675 
Q 2931 909 2931 1356 
Q 2931 1769 2642 2001 
Q 2353 2234 1838 2234 
L 1294 2234 
L 1294 2753 
L 1863 2753 
Q 2328 2753 2575 2939 
Q 2822 3125 2822 3475 
Q 2822 3834 2567 4026 
Q 2313 4219 1838 4219 
Q 1578 4219 1281 4162 
Q 984 4106 628 3988 
L 628 4550 
Q 988 4650 1302 4700 
Q 1616 4750 1894 4750 
Q 2613 4750 3031 4423 
Q 3450 4097 3450 3541 
Q 3450 3153 3228 2886 
Q 3006 2619 2597 2516 
z
" transform="scale(0.015625)"/>
       </defs>
       <use xlink:href="#DejaVuSans-33"/>
      </g>
     </g>
    </g>
    <g id="xtick_5">
     <g id="line2d_5">
      <g>
       <use xlink:href="#m930cf359f6" x="313.145903" y="273.312" style="stroke: #000000; stroke-width: 0.8"/>
      </g>
     </g>
     <g id="text_5">
      <!-- 4 -->
      <g transform="translate(309.964653 287.910437) scale(0.1 -0.1)">
       <defs>
        <path id="DejaVuSans-34" d="M 2419 4116 
L 825 1625 
L 2419 1625 
L 2419 4116 
z
M 2253 4666 
L 3047 4666 
L 3047 1625 
L 3713 1625 
L 3713 1100 
L 3047 1100 
L 3047 0 
L 2419 0 
L 2419 1100 
L 313 1100 
L 313 1709 
L 2253 4666 
z
" transform="scale(0.015625)"/>
       </defs>
       <use xlink:href="#DejaVuSans-34"/>
      </g>
     </g>
    </g>
    <g id="xtick_6">
     <g id="line2d_6">
      <g>
       <use xlink:href="#m930cf359f6" x="378.70629" y="273.312" style="stroke: #000000; stroke-width: 0.8"/>
      </g>
     </g>
     <g id="text_6">
      <!-- 5 -->
      <g transform="translate(375.52504 287.910437) scale(0.1 -0.1)">
       <defs>
        <path id="DejaVuSans-35" d="M 691 4666 
L 3169 4666 
L 3169 4134 
L 1269 4134 
L 1269 2991 
Q 1406 3038 1543 3061 
Q 1681 3084 1819 3084 
Q 2600 3084 3056 2656 
Q 3513 2228 3513 1497 
Q 3513 744 3044 326 
Q 2575 -91 1722 -91 
Q 1428 -91 1123 -41 
Q 819 9 494 109 
L 494 744 
Q 775 591 1075 516 
Q 1375 441 1709 441 
Q 2250 441 2565 725 
Q 2881 1009 2881 1497 
Q 2881 1984 2565 2268 
Q 2250 2553 1709 2553 
Q 1456 2553 1204 2497 
Q 953 2441 691 2322 
L 691 4666 
z
" transform="scale(0.015625)"/>
       </defs>
       <use xlink:href="#DejaVuSans-35"/>
      </g>
     </g>
    </g>
    <g id="text_7">
     <!-- x -->
     <g transform="translate(211.185 303.10825) scale(0.12 -0.12)">
      <defs>
       <path id="DejaVuSans-78" d="M 3513 3500 
L 2247 1797 
L 3578 0 
L 2900 0 
L 1881 1375 
L 863 0 
L 184 0 
L 1544 1831 
L 300 3500 
L 978 3500 
L 1906 2253 
L 2834 3500 
L 3513 3500 
z
" transform="scale(0.015625)"/>
      </defs>
      <use xlink:href="#DejaVuSans-78"/>
     </g>
    </g>
   </g>
   <g id="matplotlib.axis_2">
    <g id="ytick_1">
     <g id="line2d_7">
      <defs>
       <path id="m47dd2d655d" d="M 0 0 
L -3.5 0 
" style="stroke: #000000; stroke-width: 0.8"/>
      </defs>
      <g>
       <use xlink:href="#m47dd2d655d" x="36.17625" y="268.084634" style="stroke: #000000; stroke-width: 0.8"/>
      </g>
     </g>
     <g id="text_8">
      <!-- 0 -->
      <g transform="translate(22.81375 271.883853) scale(0.1 -0.1)">
       <use xlink:href="#DejaVuSans-30"/>
      </g>
     </g>
    </g>
    <g id="ytick_2">
     <g id="line2d_8">
      <g>
       <use xlink:href="#m47dd2d655d" x="36.17625" y="215.459192" style="stroke: #000000; stroke-width: 0.8"/>
      </g>
     </g>
     <g id="text_9">
      <!-- 1 -->
      <g transform="translate(22.81375 219.258411) scale(0.1 -0.1)">
       <use xlink:href="#DejaVuSans-31"/>
      </g>
     </g>
    </g>
    <g id="ytick_3">
     <g id="line2d_9">
      <g>
       <use xlink:href="#m47dd2d655d" x="36.17625" y="162.833749" style="stroke: #000000; stroke-width: 0.8"/>
      </g>
     </g>
     <g id="text_10">
      <!-- 2 -->
      <g transform="translate(22.81375 166.632968) scale(0.1 -0.1)">
       <use xlink:href="#DejaVuSans-32"/>
      </g>
     </g>
    </g>
    <g id="ytick_4">
     <g id="line2d_10">
      <g>
       <use xlink:href="#m47dd2d655d" x="36.17625" y="110.208307" style="stroke: #000000; stroke-width: 0.8"/>
      </g>
     </g>
     <g id="text_11">
      <!-- 3 -->
      <g transform="translate(22.81375 114.007526) scale(0.1 -0.1)">
       <use xlink:href="#DejaVuSans-33"/>
      </g>
     </g>
    </g>
    <g id="ytick_5">
     <g id="line2d_11">
      <g>
       <use xlink:href="#m47dd2d655d" x="36.17625" y="57.582864" style="stroke: #000000; stroke-width: 0.8"/>
      </g>
     </g>
     <g id="text_12">
      <!-- 4 -->
      <g transform="translate(22.81375 61.382083) scale(0.1 -0.1)">
       <use xlink:href="#DejaVuSans-34"/>
      </g>
     </g>
    </g>
    <g id="text_13">
     <!-- y -->
     <g transform="translate(16.318125 143.80725) rotate(-90) scale(0.12 -0.12)">
      <defs>
       <path id="DejaVuSans-79" d="M 2059 -325 
Q 1816 -950 1584 -1140 
Q 1353 -1331 966 -1331 
L 506 -1331 
L 506 -850 
L 844 -850 
Q 1081 -850 1212 -737 
Q 1344 -625 1503 -206 
L 1606 56 
L 191 3500 
L 800 3500 
L 1894 763 
L 2988 3500 
L 3597 3500 
L 2059 -325 
z
" transform="scale(0.015625)"/>
      </defs>
      <use xlink:href="#DejaVuSans-79"/>
     </g>
    </g>
   </g>
   <g id="patch_3">
    <path d="M 36.17625 273.312 
L 36.17625 7.2 
" style="fill: none; stroke: #000000; stroke-width: 0.8; stroke-linejoin: miter; stroke-linecap: square"/>
   </g>
   <g id="patch_4">
    <path d="M 393.29625 273.312 
L 393.29625 7.2 
" style="fill: none; stroke: #000000; stroke-width: 0.8; stroke-linejoin: miter; stroke-linecap: square"/>
   </g>
   <g id="patch_5">
    <path d="M 36.17625 273.312 
L 393.29625 273.312 
" style="fill: none; stroke: #000000; stroke-width: 0.8; stroke-linejoin: miter; stroke-linecap: square"/>
   </g>
   <g id="patch_6">
    <path d="M 36.17625 7.2 
L 393.29625 7.2 
" style="fill: none; stroke: #000000; stroke-width: 0.8; stroke-linejoin: miter; stroke-linecap: square"/>
   </g>
   <g id="legend_1">
    <g id="patch_7">
     <path d="M 285.11625 52.0275 
L 384.89625 52.0275 
Q 387.29625 52.0275 387.29625 49.6275 
L 387.29625 15.6 
Q 387.29625 13.2 384.89625 13.2 
L 285.11625 13.2 
Q 282.71625 13.2 282.71625 15.6 
L 282.71625 49.6275 
Q 282.71625 52.0275 285.11625 52.0275 
z
" style="fill: #ffffff; opacity: 0.8; stroke: #cccccc; stroke-linejoin: miter"/>
    </g>
    <g id="PathCollection_3">
     <g>
      <use xlink:href="#mcd04d8993f" x="299.51625" y="23.968125" style="fill: #1e90ff; stroke: #1e90ff"/>
     </g>
    </g>
    <g id="text_14">
     <!-- (x(0),y(0)) -->
     <g transform="translate(321.11625 27.118125) scale(0.12 -0.12)">
      <defs>
       <path id="DejaVuSans-28" d="M 1984 4856 
Q 1566 4138 1362 3434 
Q 1159 2731 1159 2009 
Q 1159 1288 1364 580 
Q 1569 -128 1984 -844 
L 1484 -844 
Q 1016 -109 783 600 
Q 550 1309 550 2009 
Q 550 2706 781 3412 
Q 1013 4119 1484 4856 
L 1984 4856 
z
" transform="scale(0.015625)"/>
       <path id="DejaVuSans-29" d="M 513 4856 
L 1013 4856 
Q 1481 4119 1714 3412 
Q 1947 2706 1947 2009 
Q 1947 1309 1714 600 
Q 1481 -109 1013 -844 
L 513 -844 
Q 928 -128 1133 580 
Q 1338 1288 1338 2009 
Q 1338 2731 1133 3434 
Q 928 4138 513 4856 
z
" transform="scale(0.015625)"/>
       <path id="DejaVuSans-2c" d="M 750 794 
L 1409 794 
L 1409 256 
L 897 -744 
L 494 -744 
L 750 256 
L 750 794 
z
" transform="scale(0.015625)"/>
      </defs>
      <use xlink:href="#DejaVuSans-28"/>
      <use xlink:href="#DejaVuSans-78" x="39.013672"/>
      <use xlink:href="#DejaVuSans-28" x="98.193359"/>
      <use xlink:href="#DejaVuSans-30" x="137.207031"/>
      <use xlink:href="#DejaVuSans-29" x="200.830078"/>
      <use xlink:href="#DejaVuSans-2c" x="239.84375"/>
      <use xlink:href="#DejaVuSans-79" x="271.630859"/>
      <use xlink:href="#DejaVuSans-28" x="330.810547"/>
      <use xlink:href="#DejaVuSans-30" x="369.824219"/>
      <use xlink:href="#DejaVuSans-29" x="433.447266"/>
      <use xlink:href="#DejaVuSans-29" x="472.460938"/>
     </g>
    </g>
    <g id="PathCollection_4">
     <g>
      <use xlink:href="#m5ed06d0052" x="299.51625" y="41.581875" style="fill: #ff0000; stroke: #ff0000"/>
     </g>
    </g>
    <g id="text_15">
     <!-- (x(T),y(T)) -->
     <g transform="translate(321.11625 44.731875) scale(0.12 -0.12)">
      <defs>
       <path id="DejaVuSans-54" d="M -19 4666 
L 3928 4666 
L 3928 4134 
L 2272 4134 
L 2272 0 
L 1638 0 
L 1638 4134 
L -19 4134 
L -19 4666 
z
" transform="scale(0.015625)"/>
      </defs>
      <use xlink:href="#DejaVuSans-28"/>
      <use xlink:href="#DejaVuSans-78" x="39.013672"/>
      <use xlink:href="#DejaVuSans-28" x="98.193359"/>
      <use xlink:href="#DejaVuSans-54" x="137.207031"/>
      <use xlink:href="#DejaVuSans-29" x="198.291016"/>
      <use xlink:href="#DejaVuSans-2c" x="237.304688"/>
      <use xlink:href="#DejaVuSans-79" x="269.091797"/>
      <use xlink:href="#DejaVuSans-28" x="328.271484"/>
      <use xlink:href="#DejaVuSans-54" x="367.285156"/>
      <use xlink:href="#DejaVuSans-29" x="428.369141"/>
      <use xlink:href="#DejaVuSans-29" x="467.382812"/>
     </g>
    </g>
   </g>
  </g>
 </g>
 <defs>
  <clipPath id="p346c3f3699">
   <rect x="36.17625" y="7.2" width="357.12" height="266.112"/>
  </clipPath>
 </defs>
</svg>
